<mxfile host="app.diagrams.net" modified="2024-06-16T14:53:28.807Z" agent="Mozilla/5.0 (Windows NT 10.0; Win64; x64) AppleWebKit/537.36 (KHTML, like Gecko) Chrome/126.0.0.0 Safari/537.36 Edg/126.0.0.0" etag="8DYrFXTLKvQSOVo-G_QV" version="24.5.4" type="device">
  <diagram name="Page-1" id="8ce9d11a-91a2-4d17-14d8-a56ed91bf033">
    <mxGraphModel dx="1310" dy="819" grid="1" gridSize="10" guides="1" tooltips="1" connect="1" arrows="1" fold="1" page="1" pageScale="1" pageWidth="1169" pageHeight="827" background="none" math="0" shadow="0">
      <root>
        <mxCell id="0" />
        <mxCell id="1" parent="0" />
        <mxCell id="QQFW_rIL3CMJMXOtpLMC-12" style="edgeStyle=orthogonalEdgeStyle;rounded=1;orthogonalLoop=1;jettySize=auto;html=1;exitX=0;exitY=0.5;exitDx=0;exitDy=0;entryX=0.5;entryY=0;entryDx=0;entryDy=0;strokeColor=#A9C4EB;strokeWidth=2;align=center;verticalAlign=middle;arcSize=14;fontFamily=Times New Roman;fontSize=22;fontColor=#67AB9F;fontStyle=1;labelBackgroundColor=default;endArrow=classic;fillColor=#ffe6cc;" edge="1" parent="1" source="QQFW_rIL3CMJMXOtpLMC-4" target="QQFW_rIL3CMJMXOtpLMC-8">
          <mxGeometry relative="1" as="geometry" />
        </mxCell>
        <mxCell id="QQFW_rIL3CMJMXOtpLMC-13" style="edgeStyle=orthogonalEdgeStyle;rounded=1;orthogonalLoop=1;jettySize=auto;html=1;entryX=0.5;entryY=0;entryDx=0;entryDy=0;strokeColor=#A9C4EB;strokeWidth=2;align=center;verticalAlign=middle;arcSize=14;fontFamily=Times New Roman;fontSize=22;fontColor=#67AB9F;fontStyle=1;labelBackgroundColor=default;endArrow=classic;fillColor=#ffe6cc;" edge="1" parent="1" source="QQFW_rIL3CMJMXOtpLMC-4" target="QQFW_rIL3CMJMXOtpLMC-9">
          <mxGeometry relative="1" as="geometry" />
        </mxCell>
        <mxCell id="QQFW_rIL3CMJMXOtpLMC-14" style="edgeStyle=orthogonalEdgeStyle;rounded=1;orthogonalLoop=1;jettySize=auto;html=1;exitX=1;exitY=0.5;exitDx=0;exitDy=0;entryX=0.5;entryY=0;entryDx=0;entryDy=0;strokeColor=#A9C4EB;strokeWidth=2;align=center;verticalAlign=middle;arcSize=14;fontFamily=Times New Roman;fontSize=22;fontColor=#67AB9F;fontStyle=1;labelBackgroundColor=default;endArrow=classic;fillColor=#ffe6cc;" edge="1" parent="1" source="QQFW_rIL3CMJMXOtpLMC-4" target="QQFW_rIL3CMJMXOtpLMC-10">
          <mxGeometry relative="1" as="geometry" />
        </mxCell>
        <mxCell id="QQFW_rIL3CMJMXOtpLMC-4" value="Unity Editor" style="rounded=1;whiteSpace=wrap;html=1;absoluteArcSize=1;arcSize=14;strokeWidth=2;strokeColor=#A680B8;align=center;verticalAlign=middle;fontFamily=Times New Roman;fontSize=22;fontStyle=3;fillColor=#dae8fc;shadow=0;fontColor=#67AB9F;" vertex="1" parent="1">
          <mxGeometry x="250" y="70" width="120" height="50" as="geometry" />
        </mxCell>
        <mxCell id="QQFW_rIL3CMJMXOtpLMC-17" style="edgeStyle=orthogonalEdgeStyle;rounded=1;orthogonalLoop=1;jettySize=auto;html=1;exitX=0.5;exitY=1;exitDx=0;exitDy=0;entryX=0.5;entryY=0;entryDx=0;entryDy=0;strokeColor=#A9C4EB;strokeWidth=2;align=center;verticalAlign=middle;arcSize=14;fontFamily=Times New Roman;fontSize=22;fontColor=#67AB9F;fontStyle=1;labelBackgroundColor=default;endArrow=classic;fillColor=#ffe6cc;" edge="1" parent="1" source="QQFW_rIL3CMJMXOtpLMC-8" target="QQFW_rIL3CMJMXOtpLMC-16">
          <mxGeometry relative="1" as="geometry" />
        </mxCell>
        <mxCell id="QQFW_rIL3CMJMXOtpLMC-8" value="Сцена 1" style="rounded=1;whiteSpace=wrap;html=1;absoluteArcSize=1;arcSize=14;strokeWidth=2;strokeColor=#A680B8;align=center;verticalAlign=middle;fontFamily=Times New Roman;fontSize=22;fontStyle=1;fillColor=#dae8fc;shadow=0;fontColor=#67AB9F;" vertex="1" parent="1">
          <mxGeometry x="110" y="150" width="120" height="50" as="geometry" />
        </mxCell>
        <mxCell id="QQFW_rIL3CMJMXOtpLMC-24" style="edgeStyle=orthogonalEdgeStyle;rounded=1;orthogonalLoop=1;jettySize=auto;html=1;exitX=0.5;exitY=1;exitDx=0;exitDy=0;entryX=0.5;entryY=0;entryDx=0;entryDy=0;strokeColor=#A9C4EB;strokeWidth=2;align=center;verticalAlign=middle;arcSize=14;fontFamily=Times New Roman;fontSize=22;fontColor=#67AB9F;fontStyle=1;labelBackgroundColor=default;endArrow=classic;fillColor=#ffe6cc;" edge="1" parent="1" source="QQFW_rIL3CMJMXOtpLMC-9" target="QQFW_rIL3CMJMXOtpLMC-23">
          <mxGeometry relative="1" as="geometry" />
        </mxCell>
        <mxCell id="QQFW_rIL3CMJMXOtpLMC-9" value="Сцена 2" style="rounded=1;whiteSpace=wrap;html=1;absoluteArcSize=1;arcSize=14;strokeWidth=2;strokeColor=#A680B8;align=center;verticalAlign=middle;fontFamily=Times New Roman;fontSize=22;fontStyle=1;fillColor=#dae8fc;shadow=0;fontColor=#67AB9F;" vertex="1" parent="1">
          <mxGeometry x="250" y="150" width="120" height="50" as="geometry" />
        </mxCell>
        <mxCell id="QQFW_rIL3CMJMXOtpLMC-10" value="..." style="rounded=1;whiteSpace=wrap;html=1;absoluteArcSize=1;arcSize=14;strokeWidth=2;strokeColor=#A680B8;align=center;verticalAlign=middle;fontFamily=Times New Roman;fontSize=22;fontStyle=1;fillColor=#dae8fc;shadow=0;fontColor=#67AB9F;" vertex="1" parent="1">
          <mxGeometry x="390" y="150" width="120" height="50" as="geometry" />
        </mxCell>
        <mxCell id="QQFW_rIL3CMJMXOtpLMC-16" value="Игровые объекты" style="ellipse;whiteSpace=wrap;html=1;rounded=1;shadow=0;strokeColor=#A680B8;strokeWidth=2;align=center;verticalAlign=middle;arcSize=14;fontFamily=Times New Roman;fontSize=22;fontColor=#67AB9F;fontStyle=1;fillColor=#dae8fc;" vertex="1" parent="1">
          <mxGeometry x="110" y="240" width="120" height="80" as="geometry" />
        </mxCell>
        <mxCell id="QQFW_rIL3CMJMXOtpLMC-25" style="edgeStyle=orthogonalEdgeStyle;rounded=1;orthogonalLoop=1;jettySize=auto;html=1;exitX=0;exitY=0.5;exitDx=0;exitDy=0;entryX=0.5;entryY=0;entryDx=0;entryDy=0;strokeColor=#A9C4EB;strokeWidth=2;align=center;verticalAlign=middle;arcSize=14;fontFamily=Times New Roman;fontSize=22;fontColor=#67AB9F;fontStyle=1;labelBackgroundColor=default;endArrow=classic;fillColor=#ffe6cc;" edge="1" parent="1" source="QQFW_rIL3CMJMXOtpLMC-19" target="QQFW_rIL3CMJMXOtpLMC-20">
          <mxGeometry relative="1" as="geometry" />
        </mxCell>
        <mxCell id="QQFW_rIL3CMJMXOtpLMC-26" style="edgeStyle=orthogonalEdgeStyle;rounded=1;orthogonalLoop=1;jettySize=auto;html=1;exitX=0.5;exitY=1;exitDx=0;exitDy=0;entryX=0.5;entryY=0;entryDx=0;entryDy=0;strokeColor=#A9C4EB;strokeWidth=2;align=center;verticalAlign=middle;arcSize=14;fontFamily=Times New Roman;fontSize=22;fontColor=#67AB9F;fontStyle=1;labelBackgroundColor=default;endArrow=classic;fillColor=#ffe6cc;" edge="1" parent="1" source="QQFW_rIL3CMJMXOtpLMC-19" target="QQFW_rIL3CMJMXOtpLMC-21">
          <mxGeometry relative="1" as="geometry" />
        </mxCell>
        <mxCell id="QQFW_rIL3CMJMXOtpLMC-27" style="edgeStyle=orthogonalEdgeStyle;rounded=1;orthogonalLoop=1;jettySize=auto;html=1;exitX=1;exitY=0.5;exitDx=0;exitDy=0;entryX=0.5;entryY=0;entryDx=0;entryDy=0;strokeColor=#A9C4EB;strokeWidth=2;align=center;verticalAlign=middle;arcSize=14;fontFamily=Times New Roman;fontSize=22;fontColor=#67AB9F;fontStyle=1;labelBackgroundColor=default;endArrow=classic;fillColor=#ffe6cc;" edge="1" parent="1" source="QQFW_rIL3CMJMXOtpLMC-19" target="QQFW_rIL3CMJMXOtpLMC-22">
          <mxGeometry relative="1" as="geometry" />
        </mxCell>
        <mxCell id="QQFW_rIL3CMJMXOtpLMC-19" value="Игровой объект" style="rounded=1;whiteSpace=wrap;html=1;absoluteArcSize=1;arcSize=14;strokeWidth=2;strokeColor=#A680B8;align=center;verticalAlign=middle;fontFamily=Times New Roman;fontSize=22;fontStyle=1;fillColor=#dae8fc;shadow=0;fontColor=#67AB9F;" vertex="1" parent="1">
          <mxGeometry x="750" y="70" width="120" height="50" as="geometry" />
        </mxCell>
        <mxCell id="QQFW_rIL3CMJMXOtpLMC-20" value="Компонент&lt;div&gt;&lt;i&gt;Animator&lt;/i&gt;&lt;/div&gt;" style="rounded=1;whiteSpace=wrap;html=1;absoluteArcSize=1;arcSize=14;strokeWidth=2;strokeColor=#A680B8;align=center;verticalAlign=middle;fontFamily=Times New Roman;fontSize=22;fontStyle=1;fillColor=#dae8fc;shadow=0;fontColor=#67AB9F;" vertex="1" parent="1">
          <mxGeometry x="600" y="150" width="120" height="50" as="geometry" />
        </mxCell>
        <mxCell id="QQFW_rIL3CMJMXOtpLMC-21" value="Компонент&lt;div&gt;&lt;i&gt;Renderer&lt;/i&gt;&lt;/div&gt;" style="rounded=1;whiteSpace=wrap;html=1;absoluteArcSize=1;arcSize=14;strokeWidth=2;strokeColor=#A680B8;align=center;verticalAlign=middle;fontFamily=Times New Roman;fontSize=22;fontStyle=1;fillColor=#dae8fc;shadow=0;fontColor=#67AB9F;" vertex="1" parent="1">
          <mxGeometry x="750" y="150" width="120" height="50" as="geometry" />
        </mxCell>
        <mxCell id="QQFW_rIL3CMJMXOtpLMC-22" value="..." style="rounded=1;whiteSpace=wrap;html=1;absoluteArcSize=1;arcSize=14;strokeWidth=2;strokeColor=#A680B8;align=center;verticalAlign=middle;fontFamily=Times New Roman;fontSize=22;fontStyle=1;fillColor=#dae8fc;shadow=0;fontColor=#67AB9F;" vertex="1" parent="1">
          <mxGeometry x="900" y="150" width="120" height="50" as="geometry" />
        </mxCell>
        <mxCell id="QQFW_rIL3CMJMXOtpLMC-23" value="Игровые объекты" style="ellipse;whiteSpace=wrap;html=1;rounded=1;shadow=0;strokeColor=#A680B8;strokeWidth=2;align=center;verticalAlign=middle;arcSize=14;fontFamily=Times New Roman;fontSize=22;fontColor=#67AB9F;fontStyle=1;fillColor=#dae8fc;" vertex="1" parent="1">
          <mxGeometry x="250" y="240" width="120" height="80" as="geometry" />
        </mxCell>
        <mxCell id="QQFW_rIL3CMJMXOtpLMC-29" style="edgeStyle=orthogonalEdgeStyle;rounded=1;orthogonalLoop=1;jettySize=auto;html=1;exitX=1;exitY=0.5;exitDx=0;exitDy=0;entryX=0.5;entryY=1;entryDx=0;entryDy=0;strokeColor=#A9C4EB;strokeWidth=2;align=center;verticalAlign=middle;arcSize=14;fontFamily=Times New Roman;fontSize=22;fontColor=#67AB9F;fontStyle=1;labelBackgroundColor=default;endArrow=classic;fillColor=#ffe6cc;" edge="1" parent="1" source="QQFW_rIL3CMJMXOtpLMC-28" target="QQFW_rIL3CMJMXOtpLMC-22">
          <mxGeometry relative="1" as="geometry" />
        </mxCell>
        <mxCell id="QQFW_rIL3CMJMXOtpLMC-30" style="edgeStyle=orthogonalEdgeStyle;rounded=1;orthogonalLoop=1;jettySize=auto;html=1;exitX=0;exitY=0.5;exitDx=0;exitDy=0;entryX=0.5;entryY=1;entryDx=0;entryDy=0;strokeColor=#A9C4EB;strokeWidth=2;align=center;verticalAlign=middle;arcSize=14;fontFamily=Times New Roman;fontSize=22;fontColor=#67AB9F;fontStyle=1;labelBackgroundColor=default;endArrow=classic;fillColor=#ffe6cc;" edge="1" parent="1" source="QQFW_rIL3CMJMXOtpLMC-28" target="QQFW_rIL3CMJMXOtpLMC-20">
          <mxGeometry relative="1" as="geometry" />
        </mxCell>
        <mxCell id="QQFW_rIL3CMJMXOtpLMC-31" style="edgeStyle=orthogonalEdgeStyle;rounded=1;orthogonalLoop=1;jettySize=auto;html=1;exitX=0.5;exitY=0;exitDx=0;exitDy=0;entryX=0.5;entryY=1;entryDx=0;entryDy=0;strokeColor=#A9C4EB;strokeWidth=2;align=center;verticalAlign=middle;arcSize=14;fontFamily=Times New Roman;fontSize=22;fontColor=#67AB9F;fontStyle=1;labelBackgroundColor=default;endArrow=classic;fillColor=#ffe6cc;" edge="1" parent="1" source="QQFW_rIL3CMJMXOtpLMC-28" target="QQFW_rIL3CMJMXOtpLMC-21">
          <mxGeometry relative="1" as="geometry" />
        </mxCell>
        <mxCell id="QQFW_rIL3CMJMXOtpLMC-28" value="Скрипт модуля" style="verticalLabelPosition=middle;verticalAlign=middle;html=1;shape=trapezoid;perimeter=trapezoidPerimeter;whiteSpace=wrap;size=0.23;arcSize=10;flipV=1;labelPosition=center;align=center;rounded=1;shadow=0;strokeColor=#A680B8;strokeWidth=2;fontFamily=Times New Roman;fontSize=22;fontColor=#67AB9F;fontStyle=1;fillColor=#dae8fc;" vertex="1" parent="1">
          <mxGeometry x="745" y="250" width="130" height="50" as="geometry" />
        </mxCell>
      </root>
    </mxGraphModel>
  </diagram>
</mxfile>
